<svg xmlns="http://www.w3.org/2000/svg" width="1024" height="1024" viewBox="0 0 1024 1024">
<g>
<path d="M 221.50 729.83 C207.69,731.17 142.00,731.37 142.00,730.06 C142.00,729.25 151.12,689.19 153.97,677.50 C154.51,675.30 157.45,662.47 160.52,649.00 C163.58,635.53 169.26,611.00 173.14,594.50 C177.02,578.00 183.09,552.12 186.64,537.00 C200.77,476.67 218.85,402.01 243.45,302.50 C250.79,272.80 256.96,247.61 257.16,246.52 C257.51,244.59 258.59,244.55 315.51,244.45 C347.40,244.39 373.78,244.48 374.12,244.65 C374.46,244.82 370.96,259.93 366.34,278.23 C354.01,327.02 294.47,565.03 293.47,569.50 C293.23,570.60 292.53,573.90 291.93,576.84 C291.32,579.77 289.96,582.91 288.91,583.81 C287.86,584.71 287.00,586.41 287.00,587.59 C287.00,590.16 279.17,604.00 277.31,604.71 C275.18,605.53 275.82,607.19 278.00,606.50 C279.42,606.05 280.00,606.32 280.00,607.43 C280.00,608.29 280.56,609.01 281.25,609.02 C282.18,609.03 282.16,609.24 281.16,609.88 C280.43,610.34 279.85,611.12 279.88,611.61 C279.91,612.10 278.60,612.39 276.97,612.25 C275.34,612.11 274.00,612.45 274.00,613.00 C274.00,613.55 273.65,613.89 273.23,613.75 C272.41,613.48 270.54,614.86 265.84,619.22 C263.30,621.57 263.06,622.24 264.05,624.10 C265.57,626.94 262.64,631.11 258.17,632.46 C255.91,633.14 255.00,634.02 255.00,635.53 C255.00,636.70 253.88,638.71 252.50,640.00 C251.12,641.29 250.00,643.08 250.00,643.97 C250.00,644.87 249.46,646.14 248.80,646.80 C247.87,647.73 247.87,648.27 248.80,649.20 C250.59,650.99 250.25,653.36 248.00,654.77 C246.32,655.82 246.00,657.10 246.00,662.81 C246.00,666.76 245.50,670.10 244.80,670.80 C243.87,671.73 243.87,672.27 244.80,673.20 C245.46,673.86 246.00,676.92 246.00,680.00 C246.00,683.08 245.46,686.14 244.80,686.80 C243.87,687.73 243.87,688.27 244.80,689.20 C246.24,690.64 246.39,699.85 245.02,703.43 C244.49,704.85 243.41,706.00 242.62,706.00 C241.55,706.00 241.20,707.47 241.20,712.00 C241.20,715.30 241.61,718.26 242.12,718.57 C242.62,718.88 242.79,719.53 242.49,720.01 C242.20,720.49 243.99,721.79 246.48,722.89 C248.96,723.99 251.00,725.12 251.00,725.41 C251.00,727.01 245.62,728.52 239.50,728.63 C235.65,728.70 227.55,729.23 221.50,729.83 ZM 520.46 347.07 C513.88,347.51 489.26,347.90 465.75,347.94 C429.85,347.99 423.00,347.78 423.00,346.61 C423.00,345.84 425.25,336.73 428.01,326.36 C430.76,315.99 436.38,294.23 440.49,278.00 C444.61,261.77 448.26,247.47 448.61,246.22 L 449.25 243.93 L 505.88 244.49 C568.82,245.10 580.63,245.56 581.75,247.45 C582.16,248.14 583.14,248.91 583.91,249.16 C585.97,249.81 586.17,253.00 584.15,253.00 C582.12,253.00 579.60,256.63 581.02,257.51 C582.51,258.43 582.19,263.99 580.61,264.60 C579.78,264.91 579.43,265.94 579.75,267.16 C580.26,269.10 576.93,273.33 574.50,273.82 C569.48,274.84 568.26,278.67 572.11,281.36 C573.27,282.18 573.92,283.33 573.55,283.92 C573.18,284.51 573.36,285.00 573.95,285.00 C575.13,285.00 570.28,293.28 568.76,293.86 C568.24,294.07 566.67,295.52 565.26,297.09 C563.86,298.66 562.33,299.71 561.86,299.41 C561.79,299.37 561.72,299.33 561.66,299.29 C561.45,299.15 561.30,299.05 561.18,299.08 C560.82,299.17 560.77,300.46 560.43,305.50 C560.05,311.12 559.74,311.76 555.51,315.66 C553.03,317.95 551.00,320.71 551.00,321.80 C551.00,322.88 550.21,324.05 549.25,324.40 C545.93,325.60 543.23,327.58 540.53,330.78 C539.04,332.55 537.24,334.00 536.53,334.00 C535.82,334.00 534.69,334.67 534.01,335.49 C533.01,336.69 533.07,337.09 534.32,337.57 C535.18,337.90 535.65,338.76 535.37,339.48 C535.09,340.21 535.34,341.09 535.93,341.46 C537.65,342.52 537.16,344.00 535.08,344.00 C534.03,344.00 533.00,344.51 532.79,345.13 C532.56,345.83 527.79,346.57 520.46,347.07 Z" fill="currentColor"/>
<path d="M 685.34 728.75 C688.70,732.19 691.23,735.00 690.97,735.00 C690.71,735.00 646.86,691.36 593.53,638.03 L 496.57 541.06 L 499.22 527.78 C500.68,520.48 504.44,501.38 507.58,485.35 L 513.28 456.20 L 518.39 455.62 C521.20,455.31 569.17,454.76 625.00,454.40 C719.63,453.79 726.90,453.62 732.48,451.90 C738.94,449.92 741.75,450.68 738.81,453.62 C737.63,454.80 736.74,454.96 735.41,454.21 C734.11,453.48 732.96,453.63 731.23,454.77 C729.92,455.62 726.75,456.37 724.18,456.41 C720.33,456.48 719.32,456.90 718.51,458.75 C717.97,459.99 716.84,461.07 716.01,461.15 C715.18,461.24 714.05,461.41 713.50,461.54 C712.95,461.66 710.81,461.82 708.75,461.88 C703.89,462.03 703.75,464.42 708.50,466.14 C711.95,467.38 712.00,467.48 712.00,473.20 C712.00,477.69 712.34,479.00 713.50,479.00 C714.70,479.00 715.00,480.49 715.00,486.44 C715.00,492.92 714.72,494.08 712.85,495.39 C710.93,496.74 710.77,497.51 711.32,502.81 C711.91,508.45 710.64,513.97 708.75,513.99 C707.68,514.00 707.82,517.77 708.91,518.45 C709.45,518.78 709.37,520.21 708.72,521.92 C707.89,524.13 707.95,525.82 708.98,528.93 C710.22,532.70 710.18,533.15 708.42,534.49 C706.54,535.91 706.54,535.94 708.50,536.04 C710.45,536.14 710.45,536.16 708.57,536.90 C707.23,537.42 707.00,537.88 707.82,538.39 C708.70,538.93 708.57,539.57 707.34,540.80 C706.11,542.03 705.55,542.15 705.24,541.23 C705.02,540.55 704.48,540.20 704.06,540.47 C703.63,540.73 703.40,539.86 703.54,538.54 C703.69,537.22 703.22,535.91 702.50,535.64 C700.55,534.89 699.85,536.11 701.26,537.82 C702.25,539.02 702.25,539.41 701.24,539.75 C700.55,539.98 700.24,540.58 700.55,541.09 C700.86,541.59 700.53,542.03 699.81,542.07 C699.09,542.11 700.30,542.82 702.50,543.64 C706.90,545.29 708.46,545.67 714.46,546.57 C716.68,546.90 718.69,547.36 718.92,547.58 C719.15,547.81 702.48,548.00 681.88,548.00 L 644.42 548.00 L 673.21 576.73 C689.04,592.53 702.00,605.97 702.00,606.61 C702.00,608.29 698.25,609.01 697.05,607.55 C696.48,606.87 696.24,606.10 696.50,605.83 C697.51,604.82 692.38,601.13 689.54,600.82 C685.95,600.43 684.64,603.43 687.94,604.48 C690.52,605.30 690.73,609.00 688.20,609.00 C687.21,609.00 685.93,608.53 685.36,607.96 C683.57,606.17 682.04,609.27 681.36,616.10 C681.01,619.62 680.25,623.10 679.68,623.82 C679.04,624.63 678.72,630.58 678.85,639.18 C679.06,653.04 679.03,653.24 676.53,655.56 C673.85,658.04 673.65,659.80 673.90,679.14 C673.98,684.96 673.74,685.83 671.99,686.29 C669.90,686.84 669.29,689.44 671.00,690.50 C671.55,690.84 672.00,692.22 672.00,693.56 C672.00,697.03 668.90,696.73 664.45,692.82 C661.60,690.32 660.66,689.94 659.99,691.02 C659.03,692.57 660.15,695.12 663.65,699.33 C664.94,700.88 666.00,703.02 666.00,704.08 C666.00,705.13 666.39,706.00 666.88,706.00 C667.36,706.00 668.03,707.39 668.37,709.09 C668.76,711.03 669.74,712.38 670.99,712.71 C672.11,713.00 673.00,714.07 673.00,715.12 C673.00,716.46 673.72,717.00 675.48,717.00 C677.37,717.00 678.12,717.66 678.60,719.75 C678.95,721.26 681.99,725.31 685.34,728.75 ZM 221.50 729.83 C227.55,729.23 235.65,728.70 239.50,728.63 C245.62,728.52 251.00,727.01 251.00,725.41 C251.00,725.12 248.96,723.99 246.48,722.89 C243.99,721.79 242.20,720.49 242.49,720.01 C242.79,719.53 242.62,718.88 242.12,718.57 C241.61,718.26 241.20,715.30 241.20,712.00 C241.20,707.47 241.55,706.00 242.62,706.00 C243.41,706.00 244.49,704.85 245.02,703.43 C246.39,699.85 246.24,690.64 244.80,689.20 C243.87,688.27 243.87,687.73 244.80,686.80 C245.46,686.14 246.00,683.08 246.00,680.00 C246.00,676.92 245.46,673.86 244.80,673.20 C243.87,672.27 243.87,671.73 244.80,670.80 C245.50,670.10 246.00,666.76 246.00,662.81 C246.00,657.10 246.32,655.82 248.00,654.77 C250.25,653.36 250.59,650.99 248.80,649.20 C247.87,648.27 247.87,647.73 248.80,646.80 C249.46,646.14 250.00,644.87 250.00,643.97 C250.00,643.08 251.12,641.29 252.50,640.00 C253.88,638.71 255.00,636.70 255.00,635.53 C255.00,634.02 255.91,633.14 258.17,632.46 C262.64,631.11 265.57,626.94 264.05,624.10 C263.06,622.24 263.30,621.57 265.84,619.22 C270.54,614.86 272.41,613.48 273.23,613.75 C273.65,613.89 274.00,613.55 274.00,613.00 C274.00,612.45 275.34,612.11 276.97,612.25 C278.60,612.39 279.91,612.10 279.88,611.61 C279.85,611.12 280.43,610.34 281.16,609.88 C282.16,609.24 282.18,609.03 281.25,609.02 C280.56,609.01 280.00,608.29 280.00,607.43 C280.00,606.32 279.42,606.05 278.00,606.50 C275.82,607.19 275.18,605.53 277.31,604.71 C279.17,604.00 287.00,590.16 287.00,587.59 C287.00,586.41 287.86,584.71 288.91,583.81 C289.61,583.21 290.43,581.65 291.09,579.80 C289.84,584.97 288.20,591.68 286.46,598.75 C282.91,613.19 280.00,625.18 280.00,625.38 C280.00,625.59 312.51,626.04 352.25,626.39 C391.99,626.73 440.02,627.28 459.00,627.60 L 493.50 628.19 L 517.87 652.64 C531.27,666.09 541.97,677.36 541.64,677.69 C541.32,678.02 536.71,673.94 531.40,668.63 C526.09,663.32 520.76,658.73 519.55,658.42 C518.34,658.12 516.58,656.55 515.62,654.94 C514.67,653.32 513.53,652.00 513.10,652.00 C512.67,652.00 511.00,650.86 509.41,649.47 C506.10,646.60 502.28,645.32 500.96,646.64 C500.46,647.14 499.93,648.66 499.78,650.02 C499.52,652.29 499.83,652.50 503.50,652.50 C506.94,652.50 507.55,652.83 507.83,654.86 C508.16,657.13 508.00,657.19 503.17,656.52 C499.28,655.99 497.60,656.22 495.54,657.56 C493.14,659.14 492.94,659.79 493.20,664.88 C493.47,669.87 493.76,670.53 496.00,671.14 C504.01,673.33 504.37,673.53 505.18,676.50 C505.72,678.44 505.59,680.31 504.80,681.81 C503.86,683.62 503.86,684.55 504.80,686.06 C505.65,687.41 505.74,689.19 505.11,692.00 C504.61,694.24 504.59,696.00 505.08,696.00 C505.56,696.00 505.69,697.28 505.38,698.84 C504.78,701.83 506.91,705.00 509.50,705.00 C511.38,705.00 512.42,708.79 511.02,710.48 C510.18,711.49 510.15,712.89 510.93,715.68 C512.51,721.39 512.34,721.83 508.00,723.00 C499.20,725.37 504.75,726.90 524.50,727.56 C531.65,727.80 538.62,728.27 540.00,728.61 C541.38,728.94 546.10,729.55 550.50,729.94 C550.60,729.95 550.65,729.96 550.65,729.97 C550.65,730.36 462.10,730.74 350.25,730.83 C286.20,730.88 234.55,730.84 198.71,730.71 C208.81,730.52 217.42,730.22 221.50,729.83 ZM 520.46 347.07 C527.79,346.57 532.56,345.83 532.79,345.13 C533.00,344.51 534.03,344.00 535.08,344.00 C537.16,344.00 537.65,342.52 535.93,341.46 C535.34,341.09 535.09,340.21 535.37,339.48 C535.65,338.76 535.18,337.90 534.32,337.57 C533.07,337.09 533.01,336.69 534.01,335.49 C534.69,334.67 535.82,334.00 536.53,334.00 C537.24,334.00 539.04,332.55 540.53,330.78 C543.23,327.58 545.93,325.60 549.25,324.40 C550.21,324.05 551.00,322.88 551.00,321.80 C551.00,320.71 553.03,317.95 555.51,315.66 C559.74,311.76 560.05,311.12 560.43,305.50 C560.77,300.46 560.82,299.17 561.18,299.08 C561.30,299.05 561.45,299.15 561.66,299.29 C561.72,299.33 561.79,299.37 561.86,299.41 C562.33,299.71 563.86,298.66 565.26,297.09 C566.67,295.52 568.24,294.07 568.76,293.86 C570.28,293.28 575.13,285.00 573.95,285.00 C573.36,285.00 573.18,284.51 573.55,283.92 C573.92,283.33 573.27,282.18 572.11,281.36 C568.26,278.67 569.48,274.84 574.50,273.82 C576.93,273.33 580.26,269.10 579.75,267.16 C579.43,265.94 579.78,264.91 580.61,264.60 C582.19,263.99 582.51,258.43 581.02,257.51 C579.60,256.63 582.12,253.00 584.15,253.00 C586.17,253.00 585.97,249.81 583.91,249.16 C583.14,248.91 582.16,248.14 581.75,247.45 C580.79,245.82 571.86,245.25 528.99,244.74 C559.27,244.89 599.31,245.00 638.50,245.04 C738.61,245.13 760.85,245.39 758.00,246.41 C754.18,247.78 752.34,252.00 755.57,252.00 C756.92,252.00 756.78,252.38 754.86,253.89 C752.55,255.72 752.48,256.11 753.15,264.14 C753.53,268.74 753.88,275.53 753.92,279.23 C753.99,285.31 753.77,286.11 751.54,287.57 C750.19,288.45 748.77,290.15 748.40,291.34 C748.03,292.53 747.23,293.82 746.62,294.21 C745.83,294.72 745.87,295.27 746.76,296.16 C748.24,297.64 748.46,303.40 747.00,302.50 C746.45,302.16 746.00,302.36 746.00,302.94 C746.00,303.52 745.33,304.00 744.50,304.00 C743.67,304.00 743.00,304.45 743.00,305.00 C743.00,305.55 742.33,306.00 741.50,306.00 C739.77,306.00 739.34,312.47 741.00,313.50 C742.44,314.39 742.23,318.66 740.58,321.80 C739.80,323.28 737.38,326.23 735.19,328.34 C731.43,331.99 731.24,332.47 731.47,337.59 C731.66,341.74 731.39,343.00 730.29,343.00 C729.50,343.00 728.20,343.65 727.41,344.45 C726.14,345.72 726.37,345.97 729.23,346.44 C731.03,346.74 734.30,347.14 736.50,347.33 C736.53,347.33 736.55,347.33 736.55,347.33 C736.55,347.52 667.72,347.74 581.75,347.83 C538.49,347.88 506.66,347.89 483.37,347.85 C500.49,347.70 515.53,347.40 520.46,347.07 ZM 676.95 590.91 C678.31,593.44 680.28,593.68 679.81,591.26 C679.63,590.31 678.66,589.37 677.66,589.17 C676.10,588.87 675.99,589.12 676.95,590.91 ZM 594.77 729.81 C594.99,730.47 594.25,731.00 593.11,731.00 C591.68,731.00 591.24,730.54 591.65,729.46 C592.31,727.75 594.15,727.96 594.77,729.81 ZM 701.02 533.01 C701.90,533.56 702.86,533.54 703.42,532.98 C704.77,531.63 703.41,530.63 701.32,531.43 C699.82,532.00 699.78,532.24 701.02,533.01 ZM 755.63 430.53 C755.32,431.34 754.61,432.00 754.05,432.00 C753.42,432.00 753.49,431.03 754.23,429.39 C755.43,426.76 756.68,427.79 755.63,430.53 ZM 446.47 254.51 C444.95,260.44 442.80,268.92 440.49,278.00 C436.38,294.23 430.76,315.99 428.01,326.36 C430.76,315.99 436.37,294.21 440.46,277.97 C442.74,268.91 444.91,260.44 446.47,254.51 ZM 467.32 244.11 L 449.57 243.94 L 449.61 243.81 ZM 292.75 572.90 C293.07,571.38 293.34,570.11 293.47,569.50 C293.66,568.68 295.83,559.94 299.32,545.91 C296.00,559.30 293.61,569.04 293.42,570.00 C293.35,570.33 293.11,571.35 292.75,572.90 ZM 323.41 449.46 C340.55,380.93 359.89,303.73 366.34,278.23 C360.57,301.04 342.32,373.85 323.41,449.46 Z" fill="currentColor"/>
<path d="M 520.62 244.64 C545.80,244.64 579.81,244.69 625.80,244.75 C842.13,245.06 838.49,245.01 847.00,247.94 C872.15,256.62 888.96,275.41 893.65,300.10 C896.54,315.32 895.82,319.47 877.64,392.00 C868.61,428.02 860.44,460.15 859.49,463.40 C856.09,475.04 846.62,493.06 838.87,502.63 C832.72,510.22 819.65,522.16 812.00,527.17 C800.66,534.59 793.40,538.15 782.00,541.86 C764.04,547.72 760.27,548.00 699.54,548.00 L 681.88 548.00 C702.48,548.00 719.15,547.81 718.92,547.58 C718.69,547.36 716.68,546.90 714.46,546.57 C708.46,545.67 706.90,545.29 702.50,543.64 C700.30,542.82 699.09,542.11 699.81,542.07 C700.53,542.03 700.86,541.59 700.55,541.09 C700.24,540.58 700.55,539.98 701.24,539.75 C702.25,539.41 702.25,539.02 701.26,537.82 C699.85,536.11 700.55,534.89 702.50,535.64 C703.22,535.91 703.69,537.22 703.54,538.54 C703.40,539.86 703.63,540.73 704.06,540.47 C704.48,540.20 705.02,540.55 705.24,541.23 C705.55,542.15 706.11,542.03 707.34,540.80 C708.57,539.57 708.70,538.93 707.82,538.39 C707.00,537.88 707.23,537.42 708.57,536.90 C710.45,536.16 710.45,536.14 708.50,536.04 C706.54,535.94 706.54,535.91 708.42,534.49 C710.18,533.15 710.22,532.70 708.98,528.93 C707.95,525.82 707.89,524.13 708.72,521.92 C709.37,520.21 709.45,518.78 708.91,518.45 C707.82,517.77 707.68,514.00 708.75,513.99 C710.64,513.97 711.91,508.45 711.32,502.81 C710.77,497.51 710.93,496.74 712.85,495.39 C714.72,494.08 715.00,492.92 715.00,486.44 C715.00,480.49 714.70,479.00 713.50,479.00 C712.34,479.00 712.00,477.69 712.00,473.20 C712.00,467.48 711.95,467.38 708.50,466.14 C703.75,464.42 703.89,462.03 708.75,461.88 C710.81,461.82 712.95,461.66 713.50,461.54 C714.05,461.41 715.18,461.24 716.01,461.15 C716.84,461.07 717.97,459.99 718.51,458.75 C719.32,456.90 720.33,456.48 724.18,456.41 C726.75,456.37 729.92,455.62 731.23,454.77 C732.96,453.63 734.11,453.48 735.41,454.21 C736.74,454.96 737.63,454.80 738.81,453.62 C741.28,451.15 739.69,450.22 735.28,451.16 C736.95,450.58 738.29,449.86 739.97,448.99 C745.46,446.16 750.88,438.84 753.52,430.70 C754.80,426.74 757.95,415.40 760.52,405.50 C763.10,395.60 766.95,380.95 769.08,372.95 C772.41,360.43 772.80,357.87 771.91,354.62 C771.63,353.61 771.65,352.76 771.36,352.03 C769.70,347.97 758.06,347.97 627.47,348.00 C616.95,348.00 605.66,348.00 593.53,348.00 C541.13,348.00 504.33,347.97 478.70,347.88 C480.27,347.87 481.83,347.86 483.37,347.85 C506.66,347.89 538.49,347.88 581.75,347.83 C667.72,347.74 736.55,347.52 736.55,347.33 C736.55,347.33 736.53,347.33 736.50,347.33 C734.30,347.14 731.03,346.74 729.23,346.44 C726.37,345.97 726.14,345.72 727.41,344.45 C728.20,343.65 729.50,343.00 730.29,343.00 C731.39,343.00 731.66,341.74 731.47,337.59 C731.24,332.47 731.43,331.99 735.19,328.34 C737.38,326.23 739.80,323.28 740.58,321.80 C742.23,318.66 742.44,314.39 741.00,313.50 C739.34,312.47 739.77,306.00 741.50,306.00 C742.33,306.00 743.00,305.55 743.00,305.00 C743.00,304.45 743.67,304.00 744.50,304.00 C745.33,304.00 746.00,303.52 746.00,302.94 C746.00,302.36 746.45,302.16 747.00,302.50 C748.46,303.40 748.24,297.64 746.76,296.16 C745.87,295.27 745.83,294.72 746.62,294.21 C747.23,293.82 748.03,292.53 748.40,291.34 C748.77,290.15 750.19,288.45 751.54,287.57 C753.77,286.11 753.99,285.31 753.92,279.23 C753.88,275.53 753.53,268.74 753.15,264.14 C752.48,256.11 752.55,255.72 754.86,253.89 C756.78,252.38 756.92,252.00 755.57,252.00 C752.34,252.00 754.18,247.78 758.00,246.41 C760.85,245.39 738.61,245.13 638.50,245.04 C599.31,245.00 559.27,244.89 528.99,244.74 C526.33,244.70 523.55,244.67 520.62,244.64 ZM 685.34 728.75 C681.99,725.31 678.95,721.26 678.60,719.75 C678.12,717.66 677.37,717.00 675.48,717.00 C673.72,717.00 673.00,716.46 673.00,715.12 C673.00,714.07 672.11,713.00 670.99,712.71 C669.74,712.38 668.76,711.03 668.37,709.09 C668.03,707.39 667.36,706.00 666.88,706.00 C666.39,706.00 666.00,705.13 666.00,704.08 C666.00,703.02 664.94,700.88 663.65,699.33 C660.15,695.12 659.03,692.57 659.99,691.02 C660.66,689.94 661.60,690.32 664.45,692.82 C668.90,696.73 672.00,697.03 672.00,693.56 C672.00,692.22 671.55,690.84 671.00,690.50 C669.29,689.44 669.90,686.84 671.99,686.29 C673.74,685.83 673.98,684.96 673.90,679.14 C673.65,659.80 673.85,658.04 676.53,655.56 C679.03,653.24 679.06,653.04 678.85,639.18 C678.72,630.58 679.04,624.63 679.68,623.82 C680.25,623.10 681.01,619.62 681.36,616.10 C682.04,609.27 683.57,606.17 685.36,607.96 C685.93,608.53 687.21,609.00 688.20,609.00 C690.73,609.00 690.52,605.30 687.94,604.48 C684.64,603.43 685.95,600.43 689.54,600.82 C692.38,601.13 697.51,604.82 696.50,605.83 C696.24,606.10 696.48,606.87 697.05,607.55 C698.25,609.01 702.00,608.29 702.00,606.61 C702.00,606.07 692.61,596.24 680.05,583.58 L 759.42 662.70 C822.72,725.79 874.93,777.76 875.45,778.20 C875.97,778.64 844.47,778.99 805.45,778.97 L 734.50 778.93 L 615.53 660.03 L 496.55 541.13 L 496.57 541.06 L 593.53 638.03 C646.86,691.36 690.71,735.00 690.97,735.00 C691.23,735.00 688.70,732.19 685.34,728.75 ZM 197.61 730.73 C197.98,730.72 198.35,730.71 198.71,730.71 C234.55,730.84 286.20,730.88 350.25,730.83 C462.10,730.74 550.65,730.36 550.65,729.97 C550.65,729.96 550.60,729.95 550.50,729.94 C546.10,729.55 541.38,728.94 540.00,728.61 C538.62,728.27 531.65,727.80 524.50,727.56 C504.75,726.90 499.20,725.37 508.00,723.00 C512.34,721.83 512.51,721.39 510.93,715.68 C510.15,712.89 510.18,711.49 511.02,710.48 C512.42,708.79 511.38,705.00 509.50,705.00 C506.91,705.00 504.78,701.83 505.38,698.84 C505.69,697.28 505.56,696.00 505.08,696.00 C504.59,696.00 504.61,694.24 505.11,692.00 C505.74,689.19 505.65,687.41 504.80,686.06 C503.86,684.55 503.86,683.62 504.80,681.81 C505.59,680.31 505.72,678.44 505.18,676.50 C504.37,673.53 504.01,673.33 496.00,671.14 C493.76,670.53 493.47,669.87 493.20,664.88 C492.94,659.79 493.14,659.14 495.54,657.56 C497.60,656.22 499.28,655.99 503.17,656.52 C508.00,657.19 508.16,657.13 507.83,654.86 C507.55,652.83 506.94,652.50 503.50,652.50 C499.83,652.50 499.52,652.29 499.78,650.02 C499.93,648.66 500.46,647.14 500.96,646.64 C502.28,645.32 506.10,646.60 509.41,649.47 C511.00,650.86 512.67,652.00 513.10,652.00 C513.53,652.00 514.67,653.32 515.62,654.94 C516.58,656.55 518.34,658.12 519.55,658.42 C520.76,658.73 526.09,663.32 531.40,668.63 C536.71,673.94 541.32,678.02 541.64,677.69 C541.86,677.48 537.35,672.58 530.46,665.46 L 544.23 679.34 C566.89,702.19 586.21,721.75 592.67,728.36 C592.26,728.50 591.88,728.86 591.65,729.46 C591.40,730.13 591.47,730.56 591.90,730.79 C574.02,730.91 480.41,731.00 368.50,731.00 C295.15,731.00 236.73,730.90 197.61,730.73 ZM 676.95 590.91 C675.99,589.12 676.10,588.87 677.66,589.17 C678.66,589.37 679.63,590.31 679.81,591.26 C680.28,593.68 678.31,593.44 676.95,590.91 ZM 701.02 533.01 C699.78,532.24 699.82,532.00 701.32,531.43 C703.41,530.63 704.77,531.63 703.42,532.98 C702.86,533.54 701.90,533.56 701.02,533.01 ZM 755.63 430.53 C756.68,427.79 755.43,426.76 754.23,429.39 C753.49,431.03 753.42,432.00 754.05,432.00 C754.61,432.00 755.32,431.34 755.63,430.53 ZM 731.99 452.05 C729.31,452.81 725.72,453.25 712.49,453.56 C722.79,453.25 728.33,452.79 731.99,452.05 ZM 496.21 630.91 L 493.50 628.19 L 459.00 627.60 C440.02,627.28 391.99,626.73 352.25,626.39 C391.99,626.73 440.02,627.28 459.00,627.60 L 493.50 628.18 ZM 594.98 730.75 C594.98,730.76 594.73,730.76 594.26,730.77 C594.44,730.68 594.59,730.56 594.68,730.43 C594.87,730.63 594.97,730.74 594.98,730.75 Z" fill="currentColor"/>
</g>
</svg>